# xmcd
#
# Track frame offsets: 
#        187
#        12965
#        34525
#        52230
#        66947
#        79672
#        97575
#        116177
#        136382
#        149037
#        162442
#
# Disc length: 2352 seconds
#
# Revision: 2
# Processed by: cddbd v1.5.2PL0 Copyright (c) Steve Scherf et al.
# Submitted via: ExactAudioCopy v0.99pb3
#
DISCID=98092e0b
DTITLE=Jason D. Williams - Tore Up
DYEAR=1989
DGENRE=Country
TTITLE0=Tore Up
TTITLE1=St. James Infirmary
TTITLE2=Silent Movie Medley (Dueling Pianos/Help Help)
TTITLE3=Slow Down
TTITLE4=I Refuse To Sing The Blues
TTITLE5=Waiting On Ice
TTITLE6=Why Would I Hurt You
TTITLE7=Lynnsong
TTITLE8=Where There's Smoke
TTITLE9=Rockin' On A Saturday Night
TTITLE10=Get Out Your Big Roll Daddy
EXTD=
EXTT0=
EXTT1=
EXTT2=
EXTT3=
EXTT4=
EXTT5=
EXTT6=
EXTT7=
EXTT8=
EXTT9=
EXTT10=
PLAYORDER=
